<svg width="1366" height="189" viewBox="0 0 1366 189" fill="none" xmlns="http://www.w3.org/2000/svg">
<rect width="1366" height="189" fill="url(#paint0_linear_9704_266)"/>
<path d="M114.352 54.064C113.253 54.064 112.288 53.824 111.456 53.344C110.624 52.8533 109.973 52.1813 109.504 51.328C109.045 50.4747 108.816 49.4987 108.816 48.4C108.816 47.2907 109.045 46.3093 109.504 45.456C109.973 44.6027 110.624 43.936 111.456 43.456C112.288 42.976 113.253 42.736 114.352 42.736C115.451 42.736 116.416 42.976 117.248 43.456C118.08 43.936 118.725 44.6027 119.184 45.456C119.653 46.3093 119.888 47.2907 119.888 48.4C119.888 49.4987 119.653 50.4747 119.184 51.328C118.725 52.1813 118.08 52.8533 117.248 53.344C116.416 53.824 115.451 54.064 114.352 54.064ZM114.352 53.472C115.355 53.472 116.224 53.2587 116.96 52.832C117.696 52.4053 118.261 51.808 118.656 51.04C119.061 50.272 119.264 49.392 119.264 48.4C119.264 47.3867 119.061 46.5013 118.656 45.744C118.261 44.976 117.696 44.3787 116.96 43.952C116.224 43.5253 115.355 43.312 114.352 43.312C113.349 43.312 112.48 43.5253 111.744 43.952C111.008 44.3787 110.437 44.976 110.032 45.744C109.637 46.5013 109.44 47.3867 109.44 48.4C109.44 49.392 109.637 50.272 110.032 51.04C110.437 51.808 111.008 52.4053 111.744 52.832C112.48 53.2587 113.349 53.472 114.352 53.472ZM114.352 52.096C113.712 52.096 113.131 51.952 112.608 51.664C112.085 51.376 111.664 50.9547 111.344 50.4C111.035 49.8347 110.88 49.1627 110.88 48.384C110.88 47.6053 111.035 46.9387 111.344 46.384C111.664 45.8293 112.085 45.408 112.608 45.12C113.131 44.8213 113.712 44.672 114.352 44.672C115.141 44.672 115.835 44.8853 116.432 45.312C117.029 45.728 117.429 46.3307 117.632 47.12H116.4C116.251 46.64 115.989 46.2773 115.616 46.032C115.243 45.776 114.816 45.648 114.336 45.648C113.717 45.648 113.184 45.8773 112.736 46.336C112.288 46.7947 112.064 47.4827 112.064 48.4C112.064 49.3067 112.288 49.9893 112.736 50.448C113.184 50.9067 113.717 51.136 114.336 51.136C115.381 51.136 116.069 50.6507 116.4 49.68H117.632C117.429 50.4267 117.029 51.0187 116.432 51.456C115.835 51.8827 115.141 52.096 114.352 52.096ZM121.711 54V53.056C122.468 52.4587 123.183 51.856 123.855 51.248C124.538 50.6293 125.14 50.0213 125.663 49.424C126.196 48.8267 126.612 48.24 126.911 47.664C127.22 47.088 127.375 46.5333 127.375 46C127.375 45.6053 127.306 45.2373 127.167 44.896C127.039 44.5547 126.826 44.2827 126.527 44.08C126.228 43.8667 125.823 43.76 125.311 43.76C124.82 43.76 124.41 43.872 124.079 44.096C123.748 44.3093 123.498 44.5973 123.327 44.96C123.167 45.3227 123.087 45.712 123.087 46.128H121.791C121.791 45.392 121.946 44.7627 122.255 44.24C122.564 43.7067 122.986 43.3013 123.519 43.024C124.052 42.7467 124.655 42.608 125.327 42.608C126.319 42.608 127.13 42.8907 127.759 43.456C128.399 44.0107 128.719 44.8427 128.719 45.952C128.719 46.6133 128.554 47.2693 128.223 47.92C127.892 48.56 127.471 49.184 126.959 49.792C126.447 50.3893 125.898 50.9493 125.311 51.472C124.735 51.9947 124.196 52.464 123.695 52.88H129.103V54H121.711ZM135.255 54.192C134.263 54.192 133.404 53.952 132.679 53.472C131.964 52.9813 131.415 52.304 131.031 51.44C130.647 50.5653 130.455 49.552 130.455 48.4C130.455 47.248 130.647 46.24 131.031 45.376C131.415 44.5013 131.964 43.824 132.679 43.344C133.404 42.8533 134.263 42.608 135.255 42.608C136.247 42.608 137.1 42.8533 137.815 43.344C138.53 43.824 139.079 44.5013 139.463 45.376C139.847 46.24 140.039 47.248 140.039 48.4C140.039 49.552 139.847 50.5653 139.463 51.44C139.079 52.304 138.53 52.9813 137.815 53.472C137.1 53.952 136.247 54.192 135.255 54.192ZM135.255 53.008C135.906 53.008 136.487 52.8267 136.999 52.464C137.522 52.0907 137.927 51.5627 138.215 50.88C138.514 50.1867 138.663 49.36 138.663 48.4C138.663 47.44 138.514 46.6187 138.215 45.936C137.927 45.2533 137.522 44.7307 136.999 44.368C136.487 43.9947 135.906 43.808 135.255 43.808C134.594 43.808 134.007 43.9947 133.495 44.368C132.983 44.7307 132.578 45.2533 132.279 45.936C131.98 46.6187 131.831 47.44 131.831 48.4C131.831 49.36 131.98 50.1867 132.279 50.88C132.578 51.5627 132.983 52.0907 133.495 52.464C134.007 52.8267 134.594 53.008 135.255 53.008ZM141.649 54V53.056C142.406 52.4587 143.121 51.856 143.793 51.248C144.475 50.6293 145.078 50.0213 145.601 49.424C146.134 48.8267 146.55 48.24 146.849 47.664C147.158 47.088 147.313 46.5333 147.313 46C147.313 45.6053 147.243 45.2373 147.105 44.896C146.977 44.5547 146.763 44.2827 146.465 44.08C146.166 43.8667 145.761 43.76 145.249 43.76C144.758 43.76 144.347 43.872 144.017 44.096C143.686 44.3093 143.435 44.5973 143.265 44.96C143.105 45.3227 143.025 45.712 143.025 46.128H141.729C141.729 45.392 141.883 44.7627 142.193 44.24C142.502 43.7067 142.923 43.3013 143.457 43.024C143.99 42.7467 144.593 42.608 145.265 42.608C146.257 42.608 147.067 42.8907 147.697 43.456C148.337 44.0107 148.657 44.8427 148.657 45.952C148.657 46.6133 148.491 47.2693 148.161 47.92C147.83 48.56 147.409 49.184 146.897 49.792C146.385 50.3893 145.835 50.9493 145.249 51.472C144.673 51.9947 144.134 52.464 143.633 52.88H149.041V54H141.649ZM154.469 54.192C153.754 54.192 153.109 54.064 152.533 53.808C151.957 53.5413 151.493 53.1467 151.141 52.624C150.8 52.1013 150.618 51.4507 150.597 50.672H151.957C151.968 51.312 152.192 51.8667 152.629 52.336C153.066 52.7947 153.68 53.024 154.469 53.024C155.258 53.024 155.85 52.8053 156.245 52.368C156.65 51.9307 156.853 51.4027 156.853 50.784C156.853 50.2613 156.725 49.8347 156.469 49.504C156.224 49.1733 155.888 48.928 155.461 48.768C155.045 48.608 154.586 48.528 154.085 48.528H153.253V47.392H154.085C154.81 47.392 155.376 47.2267 155.781 46.896C156.197 46.5653 156.405 46.1013 156.405 45.504C156.405 45.0027 156.24 44.592 155.909 44.272C155.589 43.9413 155.109 43.776 154.469 43.776C153.85 43.776 153.354 43.9627 152.981 44.336C152.608 44.6987 152.4 45.1573 152.357 45.712H150.997C151.029 45.104 151.189 44.5653 151.477 44.096C151.776 43.6267 152.181 43.264 152.693 43.008C153.205 42.7413 153.797 42.608 154.469 42.608C155.194 42.608 155.797 42.736 156.277 42.992C156.768 43.248 157.136 43.5893 157.381 44.016C157.637 44.4427 157.765 44.912 157.765 45.424C157.765 45.9893 157.61 46.5067 157.301 46.976C156.992 47.4347 156.528 47.744 155.909 47.904C156.57 48.0427 157.12 48.3573 157.557 48.848C157.994 49.3387 158.213 49.984 158.213 50.784C158.213 51.4027 158.069 51.9733 157.781 52.496C157.504 53.008 157.088 53.4187 156.533 53.728C155.978 54.0373 155.29 54.192 154.469 54.192ZM166.926 54.016L163.854 42.8H165.294L167.71 52.416L170.462 42.8H171.95L174.622 52.416L177.07 42.8H178.51L175.374 54H173.838L171.166 44.752L168.43 54L166.926 54.016ZM180.826 44.304C180.56 44.304 180.336 44.2187 180.154 44.048C179.984 43.8667 179.898 43.6427 179.898 43.376C179.898 43.12 179.984 42.9067 180.154 42.736C180.336 42.5653 180.56 42.48 180.826 42.48C181.082 42.48 181.301 42.5653 181.482 42.736C181.664 42.9067 181.754 43.12 181.754 43.376C181.754 43.6427 181.664 43.8667 181.482 44.048C181.301 44.2187 181.082 44.304 180.826 44.304ZM180.154 54V46.064H181.498V54H180.154ZM183.838 54V42.48H185.182V49.408L188.43 46.064H190.078L186.558 49.648L190.526 54H188.814L185.182 49.888V54H183.838ZM192.717 44.304C192.45 44.304 192.226 44.2187 192.045 44.048C191.874 43.8667 191.789 43.6427 191.789 43.376C191.789 43.12 191.874 42.9067 192.045 42.736C192.226 42.5653 192.45 42.48 192.717 42.48C192.973 42.48 193.192 42.5653 193.373 42.736C193.554 42.9067 193.645 43.12 193.645 43.376C193.645 43.6427 193.554 43.8667 193.373 44.048C193.192 44.2187 192.973 44.304 192.717 44.304ZM192.045 54V46.064H193.389V54H192.045ZM200.043 54V42.8H201.387L207.355 51.776V42.8H208.699V54H207.355L201.387 45.024V54H200.043ZM210.371 54L214.499 42.8H215.923L220.035 54H218.611L217.587 51.12H212.819L211.779 54H210.371ZM213.219 50.032H217.187L215.203 44.496L213.219 50.032ZM223.058 54V43.904H219.714V42.8H227.746V43.904H224.402V54H223.058ZM229.387 54V42.8H230.731V54H229.387ZM238.194 54.192C237.095 54.192 236.13 53.952 235.298 53.472C234.477 52.9813 233.831 52.2987 233.362 51.424C232.903 50.5493 232.674 49.5413 232.674 48.4C232.674 47.2587 232.903 46.256 233.362 45.392C233.831 44.5173 234.477 43.8347 235.298 43.344C236.13 42.8533 237.095 42.608 238.194 42.608C239.303 42.608 240.269 42.8533 241.09 43.344C241.922 43.8347 242.567 44.5173 243.026 45.392C243.485 46.256 243.714 47.2587 243.714 48.4C243.714 49.5413 243.485 50.5493 243.026 51.424C242.567 52.2987 241.922 52.9813 241.09 53.472C240.269 53.952 239.303 54.192 238.194 54.192ZM238.194 53.008C239.015 53.008 239.735 52.8267 240.354 52.464C240.983 52.0907 241.469 51.5627 241.81 50.88C242.162 50.1867 242.338 49.36 242.338 48.4C242.338 47.44 242.162 46.6187 241.81 45.936C241.469 45.2533 240.983 44.7307 240.354 44.368C239.735 43.9947 239.015 43.808 238.194 43.808C237.373 43.808 236.647 43.9947 236.018 44.368C235.399 44.7307 234.914 45.2533 234.562 45.936C234.221 46.6187 234.05 47.44 234.05 48.4C234.05 49.36 234.221 50.1867 234.562 50.88C234.914 51.5627 235.399 52.0907 236.018 52.464C236.647 52.8267 237.373 53.008 238.194 53.008ZM245.653 54V42.8H246.997L252.965 51.776V42.8H254.309V54H252.965L246.997 45.024V54H245.653ZM260.252 54.192C259.431 54.192 258.716 54.0427 258.108 53.744C257.5 53.4453 257.031 53.0293 256.7 52.496C256.369 51.9627 256.204 51.344 256.204 50.64H257.612C257.612 51.0773 257.713 51.4827 257.916 51.856C258.119 52.2187 258.412 52.512 258.796 52.736C259.191 52.9493 259.676 53.056 260.252 53.056C261.009 53.056 261.596 52.8747 262.012 52.512C262.428 52.1493 262.636 51.696 262.636 51.152C262.636 50.704 262.54 50.3467 262.348 50.08C262.156 49.8027 261.895 49.5787 261.564 49.408C261.244 49.2373 260.871 49.088 260.444 48.96C260.028 48.832 259.591 48.688 259.132 48.528C258.268 48.2293 257.628 47.8613 257.212 47.424C256.796 46.976 256.588 46.3947 256.588 45.68C256.577 45.0827 256.716 44.5547 257.004 44.096C257.292 43.6267 257.697 43.264 258.22 43.008C258.753 42.7413 259.383 42.608 260.108 42.608C260.823 42.608 261.441 42.7413 261.964 43.008C262.497 43.2747 262.908 43.6427 263.196 44.112C263.495 44.5813 263.649 45.1147 263.66 45.712H262.252C262.252 45.4027 262.172 45.0987 262.012 44.8C261.852 44.4907 261.607 44.24 261.276 44.048C260.956 43.856 260.551 43.76 260.06 43.76C259.452 43.7493 258.951 43.904 258.556 44.224C258.172 44.544 257.98 44.9867 257.98 45.552C257.98 46.032 258.113 46.4 258.38 46.656C258.657 46.912 259.041 47.1253 259.532 47.296C260.023 47.456 260.588 47.6427 261.228 47.856C261.761 48.048 262.241 48.272 262.668 48.528C263.095 48.784 263.425 49.1147 263.66 49.52C263.905 49.9253 264.028 50.4427 264.028 51.072C264.028 51.6053 263.889 52.112 263.612 52.592C263.335 53.0613 262.913 53.4453 262.348 53.744C261.793 54.0427 261.095 54.192 260.252 54.192Z" fill="white"/>
<path d="M969.752 59.192C968.931 59.192 968.216 59.0427 967.608 58.744C967 58.4453 966.531 58.0293 966.2 57.496C965.869 56.9627 965.704 56.344 965.704 55.64H967.112C967.112 56.0773 967.213 56.4827 967.416 56.856C967.619 57.2187 967.912 57.512 968.296 57.736C968.691 57.9493 969.176 58.056 969.752 58.056C970.509 58.056 971.096 57.8747 971.512 57.512C971.928 57.1493 972.136 56.696 972.136 56.152C972.136 55.704 972.04 55.3467 971.848 55.08C971.656 54.8027 971.395 54.5787 971.064 54.408C970.744 54.2373 970.371 54.088 969.944 53.96C969.528 53.832 969.091 53.688 968.632 53.528C967.768 53.2293 967.128 52.8613 966.712 52.424C966.296 51.976 966.088 51.3947 966.088 50.68C966.077 50.0827 966.216 49.5547 966.504 49.096C966.792 48.6267 967.197 48.264 967.72 48.008C968.253 47.7413 968.883 47.608 969.608 47.608C970.323 47.608 970.941 47.7413 971.464 48.008C971.997 48.2747 972.408 48.6427 972.696 49.112C972.995 49.5813 973.149 50.1147 973.16 50.712H971.752C971.752 50.4027 971.672 50.0987 971.512 49.8C971.352 49.4907 971.107 49.24 970.776 49.048C970.456 48.856 970.051 48.76 969.56 48.76C968.952 48.7493 968.451 48.904 968.056 49.224C967.672 49.544 967.48 49.9867 967.48 50.552C967.48 51.032 967.613 51.4 967.88 51.656C968.157 51.912 968.541 52.1253 969.032 52.296C969.523 52.456 970.088 52.6427 970.728 52.856C971.261 53.048 971.741 53.272 972.168 53.528C972.595 53.784 972.925 54.1147 973.16 54.52C973.405 54.9253 973.528 55.4427 973.528 56.072C973.528 56.6053 973.389 57.112 973.112 57.592C972.835 58.0613 972.413 58.4453 971.848 58.744C971.293 59.0427 970.595 59.192 969.752 59.192ZM976.17 49.304C975.903 49.304 975.679 49.2187 975.498 49.048C975.327 48.8667 975.242 48.6427 975.242 48.376C975.242 48.12 975.327 47.9067 975.498 47.736C975.679 47.5653 975.903 47.48 976.17 47.48C976.426 47.48 976.645 47.5653 976.826 47.736C977.007 47.9067 977.098 48.12 977.098 48.376C977.098 48.6427 977.007 48.8667 976.826 49.048C976.645 49.2187 976.426 49.304 976.17 49.304ZM975.498 59V51.064H976.842V59H975.498ZM982.318 56.504C981.87 56.504 981.459 56.4453 981.086 56.328L980.286 57.08C980.403 57.1653 980.547 57.24 980.718 57.304C980.899 57.3573 981.155 57.4107 981.486 57.464C981.817 57.5067 982.281 57.5547 982.878 57.608C983.945 57.6827 984.707 57.928 985.166 58.344C985.625 58.76 985.854 59.304 985.854 59.976C985.854 60.4347 985.726 60.872 985.47 61.288C985.225 61.704 984.841 62.0453 984.318 62.312C983.806 62.5787 983.145 62.712 982.334 62.712C981.619 62.712 980.985 62.616 980.43 62.424C979.875 62.2427 979.443 61.96 979.134 61.576C978.825 61.2027 978.67 60.728 978.67 60.152C978.67 59.8533 978.75 59.528 978.91 59.176C979.07 58.8347 979.369 58.5093 979.806 58.2C979.571 58.104 979.369 58.0027 979.198 57.896C979.038 57.7787 978.889 57.6507 978.75 57.512V57.144L980.11 55.8C979.481 55.2667 979.166 54.5627 979.166 53.688C979.166 53.1653 979.289 52.6907 979.534 52.264C979.779 51.8373 980.137 51.5013 980.606 51.256C981.075 51 981.646 50.872 982.318 50.872C982.777 50.872 983.193 50.936 983.566 51.064H986.494V52.072L985.006 52.136C985.315 52.584 985.47 53.1013 985.47 53.688C985.47 54.2107 985.342 54.6853 985.086 55.112C984.841 55.5387 984.483 55.88 984.014 56.136C983.555 56.3813 982.99 56.504 982.318 56.504ZM982.318 55.4C982.883 55.4 983.331 55.256 983.662 54.968C984.003 54.6693 984.174 54.2427 984.174 53.688C984.174 53.144 984.003 52.728 983.662 52.44C983.331 52.1413 982.883 51.992 982.318 51.992C981.742 51.992 981.283 52.1413 980.942 52.44C980.611 52.728 980.446 53.144 980.446 53.688C980.446 54.2427 980.611 54.6693 980.942 54.968C981.283 55.256 981.742 55.4 982.318 55.4ZM979.982 60.024C979.982 60.5573 980.206 60.952 980.654 61.208C981.102 61.4747 981.662 61.608 982.334 61.608C982.995 61.608 983.523 61.464 983.918 61.176C984.323 60.888 984.526 60.504 984.526 60.024C984.526 59.6827 984.387 59.384 984.11 59.128C983.833 58.8827 983.321 58.7387 982.574 58.696C981.987 58.6533 981.481 58.6 981.054 58.536C980.617 58.7707 980.329 59.0213 980.19 59.288C980.051 59.5653 979.982 59.8107 979.982 60.024ZM990.65 59.192C989.989 59.192 989.44 59.08 989.002 58.856C988.565 58.632 988.24 58.3333 988.026 57.96C987.813 57.5867 987.706 57.1813 987.706 56.744C987.706 55.9333 988.016 55.3093 988.634 54.872C989.253 54.4347 990.096 54.216 991.162 54.216H993.306V54.12C993.306 53.4267 993.125 52.904 992.762 52.552C992.4 52.1893 991.914 52.008 991.306 52.008C990.784 52.008 990.33 52.1413 989.946 52.408C989.573 52.664 989.338 53.0427 989.242 53.544H987.866C987.92 52.968 988.112 52.4827 988.442 52.088C988.784 51.6933 989.205 51.3947 989.706 51.192C990.208 50.9787 990.741 50.872 991.306 50.872C992.416 50.872 993.248 51.1707 993.802 51.768C994.368 52.3547 994.65 53.1387 994.65 54.12V59H993.45L993.37 57.576C993.146 58.024 992.816 58.408 992.378 58.728C991.952 59.0373 991.376 59.192 990.65 59.192ZM990.858 58.056C991.37 58.056 991.808 57.9227 992.17 57.656C992.544 57.3893 992.826 57.0427 993.018 56.616C993.21 56.1893 993.306 55.7413 993.306 55.272V55.256H991.274C990.485 55.256 989.925 55.3947 989.594 55.672C989.274 55.9387 989.114 56.2747 989.114 56.68C989.114 57.096 989.264 57.432 989.562 57.688C989.872 57.9333 990.304 58.056 990.858 58.056ZM996.507 54.92V53.784H1002.84V54.92H996.507ZM1004.87 59V51.064H1006.09L1006.17 52.488C1006.42 51.9867 1006.79 51.592 1007.27 51.304C1007.75 51.016 1008.29 50.872 1008.9 50.872C1009.84 50.872 1010.59 51.16 1011.14 51.736C1011.71 52.3013 1011.99 53.176 1011.99 54.36V59H1010.65V54.504C1010.65 52.8507 1009.96 52.024 1008.6 52.024C1007.91 52.024 1007.34 52.2747 1006.89 52.776C1006.44 53.2667 1006.21 53.9707 1006.21 54.888V59H1004.87ZM1017.64 59.192C1016.9 59.192 1016.22 59.0213 1015.63 58.68C1015.03 58.3387 1014.55 57.8587 1014.2 57.24C1013.86 56.6107 1013.69 55.8747 1013.69 55.032C1013.69 54.1893 1013.87 53.4587 1014.22 52.84C1014.57 52.2107 1015.04 51.7253 1015.64 51.384C1016.25 51.0427 1016.93 50.872 1017.67 50.872C1018.42 50.872 1019.09 51.0427 1019.69 51.384C1020.29 51.7253 1020.76 52.2107 1021.1 52.84C1021.45 53.4587 1021.63 54.1893 1021.63 55.032C1021.63 55.8747 1021.45 56.6107 1021.1 57.24C1020.75 57.8587 1020.27 58.3387 1019.66 58.68C1019.06 59.0213 1018.39 59.192 1017.64 59.192ZM1017.64 58.04C1018.1 58.04 1018.53 57.928 1018.92 57.704C1019.32 57.48 1019.64 57.144 1019.88 56.696C1020.13 56.248 1020.25 55.6933 1020.25 55.032C1020.25 54.3707 1020.13 53.816 1019.88 53.368C1019.65 52.92 1019.33 52.584 1018.94 52.36C1018.54 52.136 1018.12 52.024 1017.67 52.024C1017.22 52.024 1016.79 52.136 1016.39 52.36C1016 52.584 1015.68 52.92 1015.43 53.368C1015.19 53.816 1015.07 54.3707 1015.07 55.032C1015.07 55.6933 1015.19 56.248 1015.43 56.696C1015.68 57.144 1015.99 57.48 1016.38 57.704C1016.77 57.928 1017.19 58.04 1017.64 58.04ZM1026.53 59.192C1025.59 59.192 1024.8 58.952 1024.17 58.472C1023.54 57.992 1023.17 57.3413 1023.06 56.52H1024.44C1024.52 56.936 1024.74 57.2987 1025.09 57.608C1025.46 57.9067 1025.94 58.056 1026.55 58.056C1027.12 58.056 1027.53 57.9387 1027.8 57.704C1028.07 57.4587 1028.2 57.1707 1028.2 56.84C1028.2 56.36 1028.02 56.04 1027.67 55.88C1027.33 55.72 1026.84 55.576 1026.21 55.448C1025.79 55.3627 1025.36 55.24 1024.93 55.08C1024.51 54.92 1024.15 54.696 1023.86 54.408C1023.57 54.1093 1023.43 53.72 1023.43 53.24C1023.43 52.5467 1023.69 51.9813 1024.2 51.544C1024.72 51.096 1025.43 50.872 1026.31 50.872C1027.15 50.872 1027.84 51.0853 1028.37 51.512C1028.92 51.928 1029.23 52.5253 1029.32 53.304H1027.99C1027.94 52.8987 1027.76 52.584 1027.46 52.36C1027.17 52.1253 1026.79 52.008 1026.29 52.008C1025.81 52.008 1025.44 52.1093 1025.17 52.312C1024.92 52.5147 1024.79 52.7813 1024.79 53.112C1024.79 53.432 1024.96 53.6827 1025.29 53.864C1025.63 54.0453 1026.09 54.2 1026.66 54.328C1027.15 54.4347 1027.62 54.568 1028.05 54.728C1028.5 54.8773 1028.87 55.1067 1029.14 55.416C1029.43 55.7147 1029.57 56.152 1029.57 56.728C1029.59 57.4427 1029.31 58.0347 1028.76 58.504C1028.21 58.9627 1027.47 59.192 1026.53 59.192ZM1035.73 59V51.064H1036.95L1037.03 52.488C1037.28 51.9867 1037.65 51.592 1038.13 51.304C1038.61 51.016 1039.15 50.872 1039.76 50.872C1040.7 50.872 1041.45 51.16 1042 51.736C1042.57 52.3013 1042.85 53.176 1042.85 54.36V59H1041.51V54.504C1041.51 52.8507 1040.82 52.024 1039.46 52.024C1038.77 52.024 1038.2 52.2747 1037.75 52.776C1037.3 53.2667 1037.07 53.9707 1037.07 54.888V59H1035.73ZM1047.53 59.192C1046.86 59.192 1046.31 59.08 1045.88 58.856C1045.44 58.632 1045.11 58.3333 1044.9 57.96C1044.69 57.5867 1044.58 57.1813 1044.58 56.744C1044.58 55.9333 1044.89 55.3093 1045.51 54.872C1046.13 54.4347 1046.97 54.216 1048.04 54.216H1050.18V54.12C1050.18 53.4267 1050 52.904 1049.64 52.552C1049.27 52.1893 1048.79 52.008 1048.18 52.008C1047.66 52.008 1047.21 52.1413 1046.82 52.408C1046.45 52.664 1046.21 53.0427 1046.12 53.544H1044.74C1044.79 52.968 1044.99 52.4827 1045.32 52.088C1045.66 51.6933 1046.08 51.3947 1046.58 51.192C1047.08 50.9787 1047.62 50.872 1048.18 50.872C1049.29 50.872 1050.12 51.1707 1050.68 51.768C1051.24 52.3547 1051.53 53.1387 1051.53 54.12V59H1050.33L1050.25 57.576C1050.02 58.024 1049.69 58.408 1049.25 58.728C1048.83 59.0373 1048.25 59.192 1047.53 59.192ZM1047.73 58.056C1048.25 58.056 1048.68 57.9227 1049.05 57.656C1049.42 57.3893 1049.7 57.0427 1049.89 56.616C1050.09 56.1893 1050.18 55.7413 1050.18 55.272V55.256H1048.15C1047.36 55.256 1046.8 55.3947 1046.47 55.672C1046.15 55.9387 1045.99 56.2747 1045.99 56.68C1045.99 57.096 1046.14 57.432 1046.44 57.688C1046.75 57.9333 1047.18 58.056 1047.73 58.056ZM1056.58 59.192C1055.63 59.192 1054.84 58.952 1054.21 58.472C1053.58 57.992 1053.22 57.3413 1053.11 56.52H1054.49C1054.57 56.936 1054.79 57.2987 1055.14 57.608C1055.5 57.9067 1055.99 58.056 1056.6 58.056C1057.16 58.056 1057.58 57.9387 1057.85 57.704C1058.11 57.4587 1058.25 57.1707 1058.25 56.84C1058.25 56.36 1058.07 56.04 1057.72 55.88C1057.38 55.72 1056.89 55.576 1056.26 55.448C1055.83 55.3627 1055.41 55.24 1054.98 55.08C1054.55 54.92 1054.2 54.696 1053.91 54.408C1053.62 54.1093 1053.48 53.72 1053.48 53.24C1053.48 52.5467 1053.73 51.9813 1054.25 51.544C1054.77 51.096 1055.47 50.872 1056.36 50.872C1057.2 50.872 1057.89 51.0853 1058.42 51.512C1058.97 51.928 1059.28 52.5253 1059.37 53.304H1058.04C1057.98 52.8987 1057.81 52.584 1057.51 52.36C1057.22 52.1253 1056.83 52.008 1056.34 52.008C1055.86 52.008 1055.49 52.1093 1055.22 52.312C1054.97 52.5147 1054.84 52.7813 1054.84 53.112C1054.84 53.432 1055 53.6827 1055.33 53.864C1055.67 54.0453 1056.13 54.2 1056.71 54.328C1057.2 54.4347 1057.66 54.568 1058.1 54.728C1058.55 54.8773 1058.91 55.1067 1059.19 55.416C1059.48 55.7147 1059.62 56.152 1059.62 56.728C1059.63 57.4427 1059.36 58.0347 1058.81 58.504C1058.26 58.9627 1057.52 59.192 1056.58 59.192ZM1065.71 59V51.064H1067.54L1067.73 52.552C1068.02 52.04 1068.41 51.6347 1068.9 51.336C1069.4 51.0267 1069.98 50.872 1070.66 50.872V53.032H1070.08C1069.63 53.032 1069.23 53.1013 1068.88 53.24C1068.53 53.3787 1068.25 53.6187 1068.05 53.96C1067.86 54.3013 1067.76 54.776 1067.76 55.384V59H1065.71ZM1075.77 59.192C1074.97 59.192 1074.26 59.0213 1073.64 58.68C1073.02 58.3387 1072.54 57.8587 1072.19 57.24C1071.84 56.6213 1071.66 55.9067 1071.66 55.096C1071.66 54.2747 1071.83 53.544 1072.17 52.904C1072.52 52.264 1073 51.768 1073.61 51.416C1074.23 51.0533 1074.96 50.872 1075.79 50.872C1076.57 50.872 1077.25 51.0427 1077.85 51.384C1078.45 51.7253 1078.91 52.1947 1079.24 52.792C1079.58 53.3787 1079.76 54.0347 1079.76 54.76C1079.76 54.8773 1079.75 55 1079.74 55.128C1079.74 55.256 1079.73 55.3893 1079.72 55.528H1073.69C1073.73 56.1467 1073.95 56.632 1074.33 56.984C1074.73 57.336 1075.2 57.512 1075.76 57.512C1076.17 57.512 1076.52 57.4213 1076.8 57.24C1077.08 57.048 1077.3 56.8027 1077.44 56.504H1079.52C1079.37 57.0053 1079.12 57.464 1078.76 57.88C1078.42 58.2853 1078 58.6053 1077.48 58.84C1076.98 59.0747 1076.41 59.192 1075.77 59.192ZM1075.79 52.536C1075.29 52.536 1074.84 52.68 1074.46 52.968C1074.08 53.2453 1073.83 53.672 1073.72 54.248H1077.68C1077.64 53.7253 1077.45 53.3093 1077.1 53C1076.75 52.6907 1076.31 52.536 1075.79 52.536ZM1085.13 59.192C1084.38 59.192 1083.71 59.0107 1083.13 58.648C1082.54 58.2853 1082.07 57.7893 1081.73 57.16C1081.39 56.5307 1081.22 55.816 1081.22 55.016C1081.22 54.216 1081.39 53.5067 1081.73 52.888C1082.07 52.2587 1082.54 51.768 1083.13 51.416C1083.71 51.0533 1084.38 50.872 1085.13 50.872C1085.72 50.872 1086.25 50.984 1086.69 51.208C1087.14 51.432 1087.5 51.7467 1087.78 52.152V47.48H1089.83V59H1088.01L1087.78 57.864C1087.53 58.216 1087.18 58.5253 1086.76 58.792C1086.34 59.0587 1085.8 59.192 1085.13 59.192ZM1085.56 57.4C1086.22 57.4 1086.76 57.1813 1087.17 56.744C1087.6 56.296 1087.81 55.7253 1087.81 55.032C1087.81 54.3387 1087.6 53.7733 1087.17 53.336C1086.76 52.888 1086.22 52.664 1085.56 52.664C1084.91 52.664 1084.37 52.8827 1083.94 53.32C1083.51 53.7573 1083.3 54.3227 1083.3 55.016C1083.3 55.7093 1083.51 56.28 1083.94 56.728C1084.37 57.176 1084.91 57.4 1085.56 57.4ZM1095.77 59.192C1094.97 59.192 1094.26 59.0213 1093.64 58.68C1093.02 58.3387 1092.54 57.8587 1092.19 57.24C1091.84 56.6213 1091.66 55.9067 1091.66 55.096C1091.66 54.2747 1091.83 53.544 1092.17 52.904C1092.52 52.264 1093 51.768 1093.61 51.416C1094.23 51.0533 1094.96 50.872 1095.79 50.872C1096.57 50.872 1097.25 51.0427 1097.85 51.384C1098.45 51.7253 1098.91 52.1947 1099.24 52.792C1099.58 53.3787 1099.76 54.0347 1099.76 54.76C1099.76 54.8773 1099.75 55 1099.74 55.128C1099.74 55.256 1099.73 55.3893 1099.72 55.528H1093.69C1093.73 56.1467 1093.95 56.632 1094.33 56.984C1094.73 57.336 1095.2 57.512 1095.76 57.512C1096.17 57.512 1096.52 57.4213 1096.8 57.24C1097.08 57.048 1097.3 56.8027 1097.44 56.504H1099.52C1099.37 57.0053 1099.12 57.464 1098.76 57.88C1098.42 58.2853 1098 58.6053 1097.48 58.84C1096.98 59.0747 1096.41 59.192 1095.77 59.192ZM1095.79 52.536C1095.29 52.536 1094.84 52.68 1094.46 52.968C1094.08 53.2453 1093.83 53.672 1093.72 54.248H1097.68C1097.64 53.7253 1097.45 53.3093 1097.1 53C1096.75 52.6907 1096.31 52.536 1095.79 52.536ZM1104.76 59.192C1104.05 59.192 1103.43 59.08 1102.9 58.856C1102.37 58.6213 1101.94 58.3013 1101.62 57.896C1101.3 57.4907 1101.11 57.0213 1101.05 56.488H1103.11C1103.17 56.7973 1103.34 57.064 1103.62 57.288C1103.91 57.5013 1104.28 57.608 1104.73 57.608C1105.17 57.608 1105.5 57.5173 1105.7 57.336C1105.91 57.1547 1106.02 56.9467 1106.02 56.712C1106.02 56.3707 1105.87 56.1413 1105.57 56.024C1105.27 55.896 1104.86 55.7733 1104.33 55.656C1103.98 55.5813 1103.64 55.4907 1103.29 55.384C1102.93 55.2773 1102.61 55.144 1102.31 54.984C1102.02 54.8133 1101.79 54.6 1101.61 54.344C1101.42 54.0773 1101.33 53.752 1101.33 53.368C1101.33 52.664 1101.61 52.072 1102.17 51.592C1102.73 51.112 1103.52 50.872 1104.53 50.872C1105.47 50.872 1106.22 51.0907 1106.77 51.528C1107.34 51.9653 1107.67 52.568 1107.78 53.336H1105.85C1105.73 52.7493 1105.29 52.456 1104.52 52.456C1104.13 52.456 1103.83 52.5307 1103.62 52.68C1103.42 52.8293 1103.32 53.016 1103.32 53.24C1103.32 53.4747 1103.47 53.6613 1103.78 53.8C1104.09 53.9387 1104.5 54.0667 1105.01 54.184C1105.57 54.312 1106.07 54.456 1106.53 54.616C1107 54.7653 1107.38 54.9947 1107.65 55.304C1107.93 55.6027 1108.07 56.0347 1108.07 56.6C1108.08 57.0907 1107.95 57.5333 1107.69 57.928C1107.42 58.3227 1107.03 58.632 1106.53 58.856C1106.03 59.08 1105.44 59.192 1104.76 59.192ZM1116.98 59.192C1116.27 59.192 1115.65 59.08 1115.12 58.856C1114.59 58.6213 1114.16 58.3013 1113.84 57.896C1113.52 57.4907 1113.33 57.0213 1113.26 56.488H1115.33C1115.39 56.7973 1115.56 57.064 1115.84 57.288C1116.13 57.5013 1116.5 57.608 1116.94 57.608C1117.39 57.608 1117.72 57.5173 1117.92 57.336C1118.13 57.1547 1118.24 56.9467 1118.24 56.712C1118.24 56.3707 1118.09 56.1413 1117.79 56.024C1117.49 55.896 1117.08 55.7733 1116.54 55.656C1116.2 55.5813 1115.86 55.4907 1115.5 55.384C1115.15 55.2773 1114.83 55.144 1114.53 54.984C1114.24 54.8133 1114.01 54.6 1113.82 54.344C1113.64 54.0773 1113.55 53.752 1113.55 53.368C1113.55 52.664 1113.83 52.072 1114.38 51.592C1114.95 51.112 1115.74 50.872 1116.75 50.872C1117.69 50.872 1118.44 51.0907 1118.99 51.528C1119.56 51.9653 1119.89 52.568 1120 53.336H1118.06C1117.95 52.7493 1117.5 52.456 1116.74 52.456C1116.35 52.456 1116.05 52.5307 1115.84 52.68C1115.64 52.8293 1115.54 53.016 1115.54 53.24C1115.54 53.4747 1115.69 53.6613 1116 53.8C1116.31 53.9387 1116.72 54.0667 1117.23 54.184C1117.79 54.312 1118.29 54.456 1118.75 54.616C1119.22 54.7653 1119.59 54.9947 1119.87 55.304C1120.15 55.6027 1120.29 56.0347 1120.29 56.6C1120.3 57.0907 1120.17 57.5333 1119.9 57.928C1119.64 58.3227 1119.25 58.632 1118.75 58.856C1118.25 59.08 1117.66 59.192 1116.98 59.192ZM1125.91 59.192C1125.14 59.192 1124.45 59.016 1123.83 58.664C1123.22 58.312 1122.74 57.8267 1122.37 57.208C1122.02 56.5787 1121.85 55.8533 1121.85 55.032C1121.85 54.2107 1122.03 53.4907 1122.39 52.872C1122.75 52.2427 1123.24 51.752 1123.85 51.4C1124.47 51.048 1125.16 50.872 1125.93 50.872C1126.68 50.872 1127.37 51.048 1127.97 51.4C1128.59 51.752 1129.08 52.2427 1129.43 52.872C1129.79 53.4907 1129.97 54.2107 1129.97 55.032C1129.97 55.8533 1129.79 56.5787 1129.43 57.208C1129.08 57.8267 1128.59 58.312 1127.97 58.664C1127.36 59.016 1126.67 59.192 1125.91 59.192ZM1125.91 57.416C1126.44 57.416 1126.91 57.2187 1127.3 56.824C1127.7 56.4187 1127.89 55.8213 1127.89 55.032C1127.89 54.2427 1127.7 53.6507 1127.3 53.256C1126.91 52.8507 1126.45 52.648 1125.93 52.648C1125.38 52.648 1124.91 52.8507 1124.52 53.256C1124.13 53.6507 1123.94 54.2427 1123.94 55.032C1123.94 55.8213 1124.13 56.4187 1124.52 56.824C1124.91 57.2187 1125.38 57.416 1125.91 57.416ZM1135.69 59.192C1134.88 59.192 1134.17 59.016 1133.55 58.664C1132.93 58.312 1132.44 57.8213 1132.08 57.192C1131.73 56.5627 1131.55 55.8427 1131.55 55.032C1131.55 54.2213 1131.73 53.5013 1132.08 52.872C1132.44 52.2427 1132.93 51.752 1133.55 51.4C1134.17 51.048 1134.88 50.872 1135.69 50.872C1136.71 50.872 1137.56 51.1387 1138.25 51.672C1138.95 52.1947 1139.39 52.92 1139.58 53.848H1137.42C1137.31 53.464 1137.1 53.1653 1136.78 52.952C1136.47 52.728 1136.1 52.616 1135.68 52.616C1135.11 52.616 1134.63 52.8293 1134.24 53.256C1133.84 53.6827 1133.65 54.2747 1133.65 55.032C1133.65 55.7893 1133.84 56.3813 1134.24 56.808C1134.63 57.2347 1135.11 57.448 1135.68 57.448C1136.1 57.448 1136.47 57.3413 1136.78 57.128C1137.1 56.9147 1137.31 56.6107 1137.42 56.216H1139.58C1139.39 57.112 1138.95 57.832 1138.25 58.376C1137.56 58.92 1136.71 59.192 1135.69 59.192ZM1142.5 49.832C1142.13 49.832 1141.82 49.72 1141.58 49.496C1141.34 49.272 1141.22 48.9893 1141.22 48.648C1141.22 48.3067 1141.34 48.0293 1141.58 47.816C1141.82 47.592 1142.13 47.48 1142.5 47.48C1142.88 47.48 1143.18 47.592 1143.42 47.816C1143.66 48.0293 1143.78 48.3067 1143.78 48.648C1143.78 48.9893 1143.66 49.272 1143.42 49.496C1143.18 49.72 1142.88 49.832 1142.5 49.832ZM1141.48 59V51.064H1143.53V59H1141.48ZM1148.4 59.192C1147.72 59.192 1147.16 59.0853 1146.72 58.872C1146.28 58.648 1145.96 58.3547 1145.75 57.992C1145.53 57.6293 1145.43 57.2293 1145.43 56.792C1145.43 56.056 1145.71 55.4587 1146.29 55C1146.87 54.5413 1147.73 54.312 1148.88 54.312H1150.9V54.12C1150.9 53.576 1150.74 53.176 1150.43 52.92C1150.12 52.664 1149.74 52.536 1149.28 52.536C1148.87 52.536 1148.5 52.6373 1148.19 52.84C1147.88 53.032 1147.69 53.32 1147.62 53.704H1145.62C1145.67 53.128 1145.86 52.6267 1146.19 52.2C1146.53 51.7733 1146.97 51.448 1147.51 51.224C1148.04 50.9893 1148.64 50.872 1149.3 50.872C1150.43 50.872 1151.32 51.1547 1151.97 51.72C1152.62 52.2853 1152.95 53.0853 1152.95 54.12V59H1151.2L1151.01 57.72C1150.77 58.1467 1150.44 58.4987 1150.02 58.776C1149.6 59.0533 1149.06 59.192 1148.4 59.192ZM1148.87 57.592C1149.45 57.592 1149.91 57.4 1150.23 57.016C1150.56 56.632 1150.76 56.1573 1150.85 55.592H1149.11C1148.56 55.592 1148.17 55.6933 1147.94 55.896C1147.7 56.088 1147.59 56.328 1147.59 56.616C1147.59 56.9253 1147.7 57.1653 1147.94 57.336C1148.17 57.5067 1148.48 57.592 1148.87 57.592ZM1156 49.832C1155.63 49.832 1155.32 49.72 1155.08 49.496C1154.84 49.272 1154.72 48.9893 1154.72 48.648C1154.72 48.3067 1154.84 48.0293 1155.08 47.816C1155.32 47.592 1155.63 47.48 1156 47.48C1156.38 47.48 1156.68 47.592 1156.92 47.816C1157.16 48.0293 1157.28 48.3067 1157.28 48.648C1157.28 48.9893 1157.16 49.272 1156.92 49.496C1156.68 49.72 1156.38 49.832 1156 49.832ZM1154.98 59V51.064H1157.03V59H1154.98ZM1162.45 59.192C1161.74 59.192 1161.12 59.08 1160.59 58.856C1160.06 58.6213 1159.63 58.3013 1159.31 57.896C1158.99 57.4907 1158.8 57.0213 1158.73 56.488H1160.8C1160.86 56.7973 1161.03 57.064 1161.31 57.288C1161.6 57.5013 1161.97 57.608 1162.41 57.608C1162.86 57.608 1163.19 57.5173 1163.39 57.336C1163.6 57.1547 1163.71 56.9467 1163.71 56.712C1163.71 56.3707 1163.56 56.1413 1163.26 56.024C1162.96 55.896 1162.55 55.7733 1162.01 55.656C1161.67 55.5813 1161.33 55.4907 1160.97 55.384C1160.62 55.2773 1160.3 55.144 1160 54.984C1159.71 54.8133 1159.47 54.6 1159.29 54.344C1159.11 54.0773 1159.02 53.752 1159.02 53.368C1159.02 52.664 1159.3 52.072 1159.85 51.592C1160.42 51.112 1161.21 50.872 1162.22 50.872C1163.16 50.872 1163.91 51.0907 1164.46 51.528C1165.03 51.9653 1165.36 52.568 1165.47 53.336H1163.53C1163.42 52.7493 1162.97 52.456 1162.21 52.456C1161.82 52.456 1161.52 52.5307 1161.31 52.68C1161.11 52.8293 1161.01 53.016 1161.01 53.24C1161.01 53.4747 1161.16 53.6613 1161.47 53.8C1161.78 53.9387 1162.19 54.0667 1162.7 54.184C1163.26 54.312 1163.76 54.456 1164.22 54.616C1164.69 54.7653 1165.06 54.9947 1165.34 55.304C1165.62 55.6027 1165.76 56.0347 1165.76 56.6C1165.77 57.0907 1165.64 57.5333 1165.37 57.928C1165.11 58.3227 1164.72 58.632 1164.22 58.856C1163.72 59.08 1163.13 59.192 1162.45 59.192Z" fill="white"/>
<path d="M111.808 147V136.904H108.464V135.8H116.496V136.904H113.152V147H111.808ZM120.236 147.192C119.489 147.192 118.817 147.021 118.22 146.68C117.622 146.339 117.148 145.859 116.796 145.24C116.454 144.611 116.284 143.875 116.284 143.032C116.284 142.189 116.46 141.459 116.812 140.84C117.164 140.211 117.638 139.725 118.236 139.384C118.844 139.043 119.521 138.872 120.268 138.872C121.014 138.872 121.686 139.043 122.284 139.384C122.881 139.725 123.35 140.211 123.692 140.84C124.044 141.459 124.22 142.189 124.22 143.032C124.22 143.875 124.044 144.611 123.692 145.24C123.34 145.859 122.86 146.339 122.252 146.68C121.654 147.021 120.982 147.192 120.236 147.192ZM120.236 146.04C120.694 146.04 121.121 145.928 121.516 145.704C121.91 145.48 122.23 145.144 122.476 144.696C122.721 144.248 122.844 143.693 122.844 143.032C122.844 142.371 122.721 141.816 122.476 141.368C122.241 140.92 121.926 140.584 121.532 140.36C121.137 140.136 120.716 140.024 120.268 140.024C119.809 140.024 119.382 140.136 118.988 140.36C118.593 140.584 118.273 140.92 118.028 141.368C117.782 141.816 117.66 142.371 117.66 143.032C117.66 143.693 117.782 144.248 118.028 144.696C118.273 145.144 118.588 145.48 118.972 145.704C119.366 145.928 119.788 146.04 120.236 146.04ZM129.688 147.192C128.899 147.192 128.206 147.011 127.608 146.648C127.022 146.285 126.563 145.789 126.232 145.16C125.912 144.531 125.752 143.816 125.752 143.016C125.752 142.216 125.918 141.507 126.248 140.888C126.579 140.259 127.038 139.768 127.624 139.416C128.211 139.053 128.904 138.872 129.704 138.872C130.355 138.872 130.931 139.005 131.432 139.272C131.934 139.539 132.323 139.912 132.6 140.392V135.48H133.944V147H132.728L132.6 145.688C132.344 146.072 131.976 146.419 131.496 146.728C131.016 147.037 130.414 147.192 129.688 147.192ZM129.832 146.024C130.366 146.024 130.835 145.901 131.24 145.656C131.656 145.4 131.976 145.048 132.2 144.6C132.435 144.152 132.552 143.629 132.552 143.032C132.552 142.435 132.435 141.912 132.2 141.464C131.976 141.016 131.656 140.669 131.24 140.424C130.835 140.168 130.366 140.04 129.832 140.04C129.31 140.04 128.84 140.168 128.424 140.424C128.019 140.669 127.699 141.016 127.464 141.464C127.24 141.912 127.128 142.435 127.128 143.032C127.128 143.629 127.24 144.152 127.464 144.6C127.699 145.048 128.019 145.4 128.424 145.656C128.84 145.901 129.31 146.024 129.832 146.024ZM139.751 147.192C139.005 147.192 138.333 147.021 137.735 146.68C137.138 146.339 136.663 145.859 136.311 145.24C135.97 144.611 135.799 143.875 135.799 143.032C135.799 142.189 135.975 141.459 136.327 140.84C136.679 140.211 137.154 139.725 137.751 139.384C138.359 139.043 139.037 138.872 139.783 138.872C140.53 138.872 141.202 139.043 141.799 139.384C142.397 139.725 142.866 140.211 143.207 140.84C143.559 141.459 143.735 142.189 143.735 143.032C143.735 143.875 143.559 144.611 143.207 145.24C142.855 145.859 142.375 146.339 141.767 146.68C141.17 147.021 140.498 147.192 139.751 147.192ZM139.751 146.04C140.21 146.04 140.637 145.928 141.031 145.704C141.426 145.48 141.746 145.144 141.991 144.696C142.237 144.248 142.359 143.693 142.359 143.032C142.359 142.371 142.237 141.816 141.991 141.368C141.757 140.92 141.442 140.584 141.047 140.36C140.653 140.136 140.231 140.024 139.783 140.024C139.325 140.024 138.898 140.136 138.503 140.36C138.109 140.584 137.789 140.92 137.543 141.368C137.298 141.816 137.175 142.371 137.175 143.032C137.175 143.693 137.298 144.248 137.543 144.696C137.789 145.144 138.103 145.48 138.487 145.704C138.882 145.928 139.303 146.04 139.751 146.04ZM148.644 147.192C147.695 147.192 146.905 146.952 146.276 146.472C145.647 145.992 145.279 145.341 145.172 144.52H146.548C146.633 144.936 146.852 145.299 147.204 145.608C147.567 145.907 148.052 146.056 148.66 146.056C149.225 146.056 149.641 145.939 149.908 145.704C150.175 145.459 150.308 145.171 150.308 144.84C150.308 144.36 150.132 144.04 149.78 143.88C149.439 143.72 148.953 143.576 148.324 143.448C147.897 143.363 147.471 143.24 147.044 143.08C146.617 142.92 146.26 142.696 145.972 142.408C145.684 142.109 145.54 141.72 145.54 141.24C145.54 140.547 145.796 139.981 146.308 139.544C146.831 139.096 147.535 138.872 148.42 138.872C149.263 138.872 149.951 139.085 150.484 139.512C151.028 139.928 151.343 140.525 151.428 141.304H150.1C150.047 140.899 149.871 140.584 149.572 140.36C149.284 140.125 148.895 140.008 148.404 140.008C147.924 140.008 147.551 140.109 147.284 140.312C147.028 140.515 146.9 140.781 146.9 141.112C146.9 141.432 147.065 141.683 147.396 141.864C147.737 142.045 148.196 142.2 148.772 142.328C149.263 142.435 149.727 142.568 150.164 142.728C150.612 142.877 150.975 143.107 151.252 143.416C151.54 143.715 151.684 144.152 151.684 144.728C151.695 145.443 151.423 146.035 150.868 146.504C150.324 146.963 149.583 147.192 148.644 147.192ZM161.454 147.192C160.708 147.192 160.036 147.021 159.438 146.68C158.841 146.339 158.366 145.859 158.014 145.24C157.673 144.611 157.502 143.875 157.502 143.032C157.502 142.189 157.678 141.459 158.03 140.84C158.382 140.211 158.857 139.725 159.454 139.384C160.062 139.043 160.74 138.872 161.486 138.872C162.233 138.872 162.905 139.043 163.502 139.384C164.1 139.725 164.569 140.211 164.91 140.84C165.262 141.459 165.438 142.189 165.438 143.032C165.438 143.875 165.262 144.611 164.91 145.24C164.558 145.859 164.078 146.339 163.47 146.68C162.873 147.021 162.201 147.192 161.454 147.192ZM161.454 146.04C161.913 146.04 162.34 145.928 162.734 145.704C163.129 145.48 163.449 145.144 163.694 144.696C163.94 144.248 164.062 143.693 164.062 143.032C164.062 142.371 163.94 141.816 163.694 141.368C163.46 140.92 163.145 140.584 162.75 140.36C162.356 140.136 161.934 140.024 161.486 140.024C161.028 140.024 160.601 140.136 160.206 140.36C159.812 140.584 159.492 140.92 159.246 141.368C159.001 141.816 158.878 142.371 158.878 143.032C158.878 143.693 159.001 144.248 159.246 144.696C159.492 145.144 159.806 145.48 160.19 145.704C160.585 145.928 161.006 146.04 161.454 146.04ZM170.347 147.192C169.398 147.192 168.608 146.952 167.979 146.472C167.35 145.992 166.982 145.341 166.875 144.52H168.251C168.336 144.936 168.555 145.299 168.907 145.608C169.27 145.907 169.755 146.056 170.363 146.056C170.928 146.056 171.344 145.939 171.611 145.704C171.878 145.459 172.011 145.171 172.011 144.84C172.011 144.36 171.835 144.04 171.483 143.88C171.142 143.72 170.656 143.576 170.027 143.448C169.6 143.363 169.174 143.24 168.747 143.08C168.32 142.92 167.963 142.696 167.675 142.408C167.387 142.109 167.243 141.72 167.243 141.24C167.243 140.547 167.499 139.981 168.011 139.544C168.534 139.096 169.238 138.872 170.123 138.872C170.966 138.872 171.654 139.085 172.187 139.512C172.731 139.928 173.046 140.525 173.131 141.304H171.803C171.75 140.899 171.574 140.584 171.275 140.36C170.987 140.125 170.598 140.008 170.107 140.008C169.627 140.008 169.254 140.109 168.987 140.312C168.731 140.515 168.603 140.781 168.603 141.112C168.603 141.432 168.768 141.683 169.099 141.864C169.44 142.045 169.899 142.2 170.475 142.328C170.966 142.435 171.43 142.568 171.867 142.728C172.315 142.877 172.678 143.107 172.955 143.416C173.243 143.715 173.387 144.152 173.387 144.728C173.398 145.443 173.126 146.035 172.571 146.504C172.027 146.963 171.286 147.192 170.347 147.192ZM183.141 147.192C182.352 147.192 181.659 147.011 181.062 146.648C180.475 146.285 180.016 145.789 179.686 145.16C179.366 144.531 179.206 143.816 179.206 143.016C179.206 142.216 179.371 141.507 179.702 140.888C180.032 140.259 180.491 139.768 181.078 139.416C181.664 139.053 182.358 138.872 183.158 138.872C183.808 138.872 184.384 139.005 184.886 139.272C185.387 139.539 185.776 139.912 186.054 140.392V135.48H187.398V147H186.182L186.054 145.688C185.798 146.072 185.43 146.419 184.95 146.728C184.47 147.037 183.867 147.192 183.141 147.192ZM183.286 146.024C183.819 146.024 184.288 145.901 184.694 145.656C185.11 145.4 185.43 145.048 185.654 144.6C185.888 144.152 186.006 143.629 186.006 143.032C186.006 142.435 185.888 141.912 185.654 141.464C185.43 141.016 185.11 140.669 184.694 140.424C184.288 140.168 183.819 140.04 183.286 140.04C182.763 140.04 182.294 140.168 181.878 140.424C181.472 140.669 181.152 141.016 180.918 141.464C180.694 141.912 180.582 142.435 180.582 143.032C180.582 143.629 180.694 144.152 180.918 144.6C181.152 145.048 181.472 145.4 181.878 145.656C182.294 145.901 182.763 146.024 183.286 146.024ZM190.404 137.304C190.138 137.304 189.914 137.219 189.732 137.048C189.562 136.867 189.476 136.643 189.476 136.376C189.476 136.12 189.562 135.907 189.732 135.736C189.914 135.565 190.138 135.48 190.404 135.48C190.66 135.48 190.879 135.565 191.06 135.736C191.242 135.907 191.332 136.12 191.332 136.376C191.332 136.643 191.242 136.867 191.06 137.048C190.879 137.219 190.66 137.304 190.404 137.304ZM189.732 147V139.064H191.076V147H189.732ZM193.417 147V139.064H194.633L194.745 140.584C194.99 140.061 195.363 139.645 195.865 139.336C196.366 139.027 196.985 138.872 197.721 138.872V140.28H197.353C196.883 140.28 196.451 140.365 196.057 140.536C195.662 140.696 195.347 140.973 195.113 141.368C194.878 141.763 194.761 142.307 194.761 143V147H193.417ZM202.5 147.192C201.743 147.192 201.071 147.021 200.484 146.68C199.897 146.328 199.433 145.843 199.092 145.224C198.761 144.605 198.596 143.875 198.596 143.032C198.596 142.2 198.761 141.475 199.092 140.856C199.423 140.227 199.881 139.741 200.468 139.4C201.065 139.048 201.753 138.872 202.532 138.872C203.3 138.872 203.961 139.048 204.516 139.4C205.081 139.741 205.513 140.195 205.812 140.76C206.111 141.325 206.26 141.933 206.26 142.584C206.26 142.701 206.255 142.819 206.244 142.936C206.244 143.053 206.244 143.187 206.244 143.336H199.924C199.956 143.944 200.095 144.451 200.34 144.856C200.596 145.251 200.911 145.549 201.284 145.752C201.668 145.955 202.073 146.056 202.5 146.056C203.055 146.056 203.519 145.928 203.892 145.672C204.265 145.416 204.537 145.069 204.708 144.632H206.036C205.823 145.368 205.412 145.981 204.804 146.472C204.207 146.952 203.439 147.192 202.5 147.192ZM202.5 140.008C201.86 140.008 201.289 140.205 200.788 140.6C200.297 140.984 200.015 141.549 199.94 142.296H204.932C204.9 141.581 204.655 141.021 204.196 140.616C203.737 140.211 203.172 140.008 202.5 140.008ZM208.858 137.304C208.591 137.304 208.367 137.219 208.186 137.048C208.015 136.867 207.93 136.643 207.93 136.376C207.93 136.12 208.015 135.907 208.186 135.736C208.367 135.565 208.591 135.48 208.858 135.48C209.114 135.48 209.332 135.565 209.514 135.736C209.695 135.907 209.786 136.12 209.786 136.376C209.786 136.643 209.695 136.867 209.514 137.048C209.332 137.219 209.114 137.304 208.858 137.304ZM208.186 147V139.064H209.53V147H208.186ZM215.006 147C214.28 147 213.71 146.824 213.294 146.472C212.878 146.12 212.67 145.485 212.67 144.568V140.2H211.294V139.064H212.67L212.846 137.16H214.014V139.064H216.35V140.2H214.014V144.568C214.014 145.069 214.115 145.411 214.318 145.592C214.52 145.763 214.878 145.848 215.39 145.848H216.222V147H215.006ZM221.454 147.192C220.708 147.192 220.036 147.021 219.438 146.68C218.841 146.339 218.366 145.859 218.014 145.24C217.673 144.611 217.502 143.875 217.502 143.032C217.502 142.189 217.678 141.459 218.03 140.84C218.382 140.211 218.857 139.725 219.454 139.384C220.062 139.043 220.74 138.872 221.486 138.872C222.233 138.872 222.905 139.043 223.502 139.384C224.1 139.725 224.569 140.211 224.91 140.84C225.262 141.459 225.438 142.189 225.438 143.032C225.438 143.875 225.262 144.611 224.91 145.24C224.558 145.859 224.078 146.339 223.47 146.68C222.873 147.021 222.201 147.192 221.454 147.192ZM221.454 146.04C221.913 146.04 222.34 145.928 222.734 145.704C223.129 145.48 223.449 145.144 223.694 144.696C223.94 144.248 224.062 143.693 224.062 143.032C224.062 142.371 223.94 141.816 223.694 141.368C223.46 140.92 223.145 140.584 222.75 140.36C222.356 140.136 221.934 140.024 221.486 140.024C221.028 140.024 220.601 140.136 220.206 140.36C219.812 140.584 219.492 140.92 219.246 141.368C219.001 141.816 218.878 142.371 218.878 143.032C218.878 143.693 219.001 144.248 219.246 144.696C219.492 145.144 219.806 145.48 220.19 145.704C220.585 145.928 221.006 146.04 221.454 146.04ZM230.347 147.192C229.398 147.192 228.608 146.952 227.979 146.472C227.35 145.992 226.982 145.341 226.875 144.52H228.251C228.336 144.936 228.555 145.299 228.907 145.608C229.27 145.907 229.755 146.056 230.363 146.056C230.928 146.056 231.344 145.939 231.611 145.704C231.878 145.459 232.011 145.171 232.011 144.84C232.011 144.36 231.835 144.04 231.483 143.88C231.142 143.72 230.656 143.576 230.027 143.448C229.6 143.363 229.174 143.24 228.747 143.08C228.32 142.92 227.963 142.696 227.675 142.408C227.387 142.109 227.243 141.72 227.243 141.24C227.243 140.547 227.499 139.981 228.011 139.544C228.534 139.096 229.238 138.872 230.123 138.872C230.966 138.872 231.654 139.085 232.187 139.512C232.731 139.928 233.046 140.525 233.131 141.304H231.803C231.75 140.899 231.574 140.584 231.275 140.36C230.987 140.125 230.598 140.008 230.107 140.008C229.627 140.008 229.254 140.109 228.987 140.312C228.731 140.515 228.603 140.781 228.603 141.112C228.603 141.432 228.768 141.683 229.099 141.864C229.44 142.045 229.899 142.2 230.475 142.328C230.966 142.435 231.43 142.568 231.867 142.728C232.315 142.877 232.678 143.107 232.955 143.416C233.243 143.715 233.387 144.152 233.387 144.728C233.398 145.443 233.126 146.035 232.571 146.504C232.027 146.963 231.286 147.192 230.347 147.192ZM239.542 147V139.064H240.758L240.87 140.584C241.115 140.061 241.488 139.645 241.99 139.336C242.491 139.027 243.11 138.872 243.846 138.872V140.28H243.478C243.008 140.28 242.576 140.365 242.182 140.536C241.787 140.696 241.472 140.973 241.238 141.368C241.003 141.763 240.886 142.307 240.886 143V147H239.542ZM248.625 147.192C247.868 147.192 247.196 147.021 246.609 146.68C246.022 146.328 245.558 145.843 245.217 145.224C244.886 144.605 244.721 143.875 244.721 143.032C244.721 142.2 244.886 141.475 245.217 140.856C245.548 140.227 246.006 139.741 246.593 139.4C247.19 139.048 247.878 138.872 248.657 138.872C249.425 138.872 250.086 139.048 250.641 139.4C251.206 139.741 251.638 140.195 251.937 140.76C252.236 141.325 252.385 141.933 252.385 142.584C252.385 142.701 252.38 142.819 252.369 142.936C252.369 143.053 252.369 143.187 252.369 143.336H246.049C246.081 143.944 246.22 144.451 246.465 144.856C246.721 145.251 247.036 145.549 247.409 145.752C247.793 145.955 248.198 146.056 248.625 146.056C249.18 146.056 249.644 145.928 250.017 145.672C250.39 145.416 250.662 145.069 250.833 144.632H252.161C251.948 145.368 251.537 145.981 250.929 146.472C250.332 146.952 249.564 147.192 248.625 147.192ZM248.625 140.008C247.985 140.008 247.414 140.205 246.913 140.6C246.422 140.984 246.14 141.549 246.065 142.296H251.057C251.025 141.581 250.78 141.021 250.321 140.616C249.862 140.211 249.297 140.008 248.625 140.008ZM257.207 147.192C256.257 147.192 255.468 146.952 254.839 146.472C254.209 145.992 253.841 145.341 253.735 144.52H255.111C255.196 144.936 255.415 145.299 255.767 145.608C256.129 145.907 256.615 146.056 257.223 146.056C257.788 146.056 258.204 145.939 258.471 145.704C258.737 145.459 258.871 145.171 258.871 144.84C258.871 144.36 258.695 144.04 258.343 143.88C258.001 143.72 257.516 143.576 256.887 143.448C256.46 143.363 256.033 143.24 255.607 143.08C255.18 142.92 254.823 142.696 254.535 142.408C254.247 142.109 254.103 141.72 254.103 141.24C254.103 140.547 254.359 139.981 254.871 139.544C255.393 139.096 256.097 138.872 256.983 138.872C257.825 138.872 258.513 139.085 259.047 139.512C259.591 139.928 259.905 140.525 259.991 141.304H258.663C258.609 140.899 258.433 140.584 258.135 140.36C257.847 140.125 257.457 140.008 256.967 140.008C256.487 140.008 256.113 140.109 255.847 140.312C255.591 140.515 255.463 140.781 255.463 141.112C255.463 141.432 255.628 141.683 255.959 141.864C256.3 142.045 256.759 142.2 257.335 142.328C257.825 142.435 258.289 142.568 258.727 142.728C259.175 142.877 259.537 143.107 259.815 143.416C260.103 143.715 260.247 144.152 260.247 144.728C260.257 145.443 259.985 146.035 259.431 146.504C258.887 146.963 258.145 147.192 257.207 147.192ZM265.735 147.192C264.977 147.192 264.305 147.021 263.719 146.68C263.132 146.328 262.668 145.843 262.327 145.224C261.996 144.605 261.831 143.875 261.831 143.032C261.831 142.2 261.996 141.475 262.327 140.856C262.657 140.227 263.116 139.741 263.703 139.4C264.3 139.048 264.988 138.872 265.766 138.872C266.535 138.872 267.196 139.048 267.751 139.4C268.316 139.741 268.748 140.195 269.047 140.76C269.345 141.325 269.495 141.933 269.495 142.584C269.495 142.701 269.489 142.819 269.479 142.936C269.479 143.053 269.479 143.187 269.479 143.336H263.159C263.191 143.944 263.329 144.451 263.575 144.856C263.831 145.251 264.145 145.549 264.519 145.752C264.903 145.955 265.308 146.056 265.735 146.056C266.289 146.056 266.753 145.928 267.127 145.672C267.5 145.416 267.772 145.069 267.943 144.632H269.271C269.057 145.368 268.647 145.981 268.039 146.472C267.441 146.952 266.673 147.192 265.735 147.192ZM265.735 140.008C265.095 140.008 264.524 140.205 264.023 140.6C263.532 140.984 263.249 141.549 263.174 142.296H268.167C268.135 141.581 267.889 141.021 267.431 140.616C266.972 140.211 266.407 140.008 265.735 140.008ZM271.276 147V139.064H272.492L272.604 140.584C272.849 140.061 273.223 139.645 273.724 139.336C274.225 139.027 274.844 138.872 275.58 138.872V140.28H275.212C274.743 140.28 274.311 140.365 273.916 140.536C273.521 140.696 273.207 140.973 272.972 141.368C272.737 141.763 272.62 142.307 272.62 143V147H271.276ZM279.376 147L276.368 139.064H277.776L280.16 145.704L282.56 139.064H283.936L280.928 147H279.376ZM287.666 147.192C287.005 147.192 286.455 147.08 286.018 146.856C285.581 146.632 285.255 146.333 285.042 145.96C284.829 145.587 284.722 145.181 284.722 144.744C284.722 143.933 285.031 143.309 285.65 142.872C286.269 142.435 287.111 142.216 288.178 142.216H290.322V142.12C290.322 141.427 290.141 140.904 289.778 140.552C289.415 140.189 288.93 140.008 288.322 140.008C287.799 140.008 287.346 140.141 286.962 140.408C286.589 140.664 286.354 141.043 286.258 141.544H284.882C284.935 140.968 285.127 140.483 285.458 140.088C285.799 139.693 286.221 139.395 286.722 139.192C287.223 138.979 287.757 138.872 288.322 138.872C289.431 138.872 290.263 139.171 290.818 139.768C291.383 140.355 291.666 141.139 291.666 142.12V147H290.466L290.386 145.576C290.162 146.024 289.831 146.408 289.394 146.728C288.967 147.037 288.391 147.192 287.666 147.192ZM287.874 146.056C288.386 146.056 288.823 145.923 289.186 145.656C289.559 145.389 289.842 145.043 290.034 144.616C290.226 144.189 290.322 143.741 290.322 143.272V143.256H288.29C287.501 143.256 286.941 143.395 286.61 143.672C286.29 143.939 286.13 144.275 286.13 144.68C286.13 145.096 286.279 145.432 286.578 145.688C286.887 145.933 287.319 146.056 287.874 146.056ZM297.282 147.192C296.493 147.192 295.799 147.011 295.202 146.648C294.615 146.285 294.157 145.789 293.826 145.16C293.506 144.531 293.346 143.816 293.346 143.016C293.346 142.216 293.511 141.507 293.842 140.888C294.173 140.259 294.631 139.768 295.218 139.416C295.805 139.053 296.498 138.872 297.298 138.872C297.949 138.872 298.525 139.005 299.026 139.272C299.527 139.539 299.917 139.912 300.194 140.392V135.48H301.538V147H300.322L300.194 145.688C299.938 146.072 299.57 146.419 299.09 146.728C298.61 147.037 298.007 147.192 297.282 147.192ZM297.426 146.024C297.959 146.024 298.429 145.901 298.834 145.656C299.25 145.4 299.57 145.048 299.794 144.6C300.029 144.152 300.146 143.629 300.146 143.032C300.146 142.435 300.029 141.912 299.794 141.464C299.57 141.016 299.25 140.669 298.834 140.424C298.429 140.168 297.959 140.04 297.426 140.04C296.903 140.04 296.434 140.168 296.018 140.424C295.613 140.669 295.293 141.016 295.058 141.464C294.834 141.912 294.722 142.435 294.722 143.032C294.722 143.629 294.834 144.152 295.058 144.6C295.293 145.048 295.613 145.4 296.018 145.656C296.434 145.901 296.903 146.024 297.426 146.024ZM307.345 147.192C306.598 147.192 305.926 147.021 305.329 146.68C304.732 146.339 304.257 145.859 303.905 145.24C303.564 144.611 303.393 143.875 303.393 143.032C303.393 142.189 303.569 141.459 303.921 140.84C304.273 140.211 304.748 139.725 305.345 139.384C305.953 139.043 306.63 138.872 307.377 138.872C308.124 138.872 308.796 139.043 309.393 139.384C309.99 139.725 310.46 140.211 310.801 140.84C311.153 141.459 311.329 142.189 311.329 143.032C311.329 143.875 311.153 144.611 310.801 145.24C310.449 145.859 309.969 146.339 309.361 146.68C308.764 147.021 308.092 147.192 307.345 147.192ZM307.345 146.04C307.804 146.04 308.23 145.928 308.625 145.704C309.02 145.48 309.34 145.144 309.585 144.696C309.83 144.248 309.953 143.693 309.953 143.032C309.953 142.371 309.83 141.816 309.585 141.368C309.35 140.92 309.036 140.584 308.641 140.36C308.246 140.136 307.825 140.024 307.377 140.024C306.918 140.024 306.492 140.136 306.097 140.36C305.702 140.584 305.382 140.92 305.137 141.368C304.892 141.816 304.769 142.371 304.769 143.032C304.769 143.693 304.892 144.248 305.137 144.696C305.382 145.144 305.697 145.48 306.081 145.704C306.476 145.928 306.897 146.04 307.345 146.04ZM316.238 147.192C315.288 147.192 314.499 146.952 313.87 146.472C313.24 145.992 312.872 145.341 312.766 144.52H314.142C314.227 144.936 314.446 145.299 314.798 145.608C315.16 145.907 315.646 146.056 316.254 146.056C316.819 146.056 317.235 145.939 317.502 145.704C317.768 145.459 317.902 145.171 317.902 144.84C317.902 144.36 317.726 144.04 317.374 143.88C317.032 143.72 316.547 143.576 315.918 143.448C315.491 143.363 315.064 143.24 314.638 143.08C314.211 142.92 313.854 142.696 313.566 142.408C313.278 142.109 313.134 141.72 313.134 141.24C313.134 140.547 313.39 139.981 313.902 139.544C314.424 139.096 315.128 138.872 316.014 138.872C316.856 138.872 317.544 139.085 318.078 139.512C318.622 139.928 318.936 140.525 319.022 141.304H317.694C317.64 140.899 317.464 140.584 317.166 140.36C316.878 140.125 316.488 140.008 315.998 140.008C315.518 140.008 315.144 140.109 314.878 140.312C314.622 140.515 314.494 140.781 314.494 141.112C314.494 141.432 314.659 141.683 314.99 141.864C315.331 142.045 315.79 142.2 316.366 142.328C316.856 142.435 317.32 142.568 317.758 142.728C318.206 142.877 318.568 143.107 318.846 143.416C319.134 143.715 319.278 144.152 319.278 144.728C319.288 145.443 319.016 146.035 318.462 146.504C317.918 146.963 317.176 147.192 316.238 147.192ZM321.662 147.08C321.395 147.08 321.171 146.995 320.99 146.824C320.819 146.643 320.734 146.424 320.734 146.168C320.734 145.912 320.819 145.699 320.99 145.528C321.171 145.347 321.395 145.256 321.662 145.256C321.918 145.256 322.131 145.347 322.302 145.528C322.483 145.699 322.574 145.912 322.574 146.168C322.574 146.424 322.483 146.643 322.302 146.824C322.131 146.995 321.918 147.08 321.662 147.08Z" fill="white"/>
<path d="M173.792 74.072L162.08 119H148.832L141.664 89.432L134.24 119H120.992L109.6 74.072H121.312L127.776 106.776L135.776 74.072H147.808L155.488 106.776L162.016 74.072H173.792ZM184.785 79.576C182.865 79.576 181.286 79.0213 180.049 77.912C178.854 76.76 178.257 75.352 178.257 73.688C178.257 71.9813 178.854 70.5733 180.049 69.464C181.286 68.312 182.865 67.736 184.785 67.736C186.662 67.736 188.198 68.312 189.393 69.464C190.63 70.5733 191.249 71.9813 191.249 73.688C191.249 75.352 190.63 76.76 189.393 77.912C188.198 79.0213 186.662 79.576 184.785 79.576ZM190.225 83.288V119H179.281V83.288H190.225ZM219.98 119L209.1 104.024V119H198.156V71.64H209.1V97.816L219.916 83.288H233.42L218.572 101.208L233.548 119H219.98ZM243.222 79.576C241.302 79.576 239.723 79.0213 238.486 77.912C237.291 76.76 236.694 75.352 236.694 73.688C236.694 71.9813 237.291 70.5733 238.486 69.464C239.723 68.312 241.302 67.736 243.222 67.736C245.099 67.736 246.635 68.312 247.83 69.464C249.067 70.5733 249.686 71.9813 249.686 73.688C249.686 75.352 249.067 76.76 247.83 77.912C246.635 79.0213 245.099 79.576 243.222 79.576ZM248.662 83.288V119H237.718V83.288H248.662Z" fill="#F178B6"/>
<path d="M310.348 119H299.404L281.1 91.288V119H270.156V74.072H281.1L299.404 101.912V74.072H310.348V119ZM346.249 111.064H329.481L326.793 119H315.337L331.593 74.072H344.265L360.521 119H348.937L346.249 111.064ZM343.433 102.616L337.865 86.168L332.361 102.616H343.433ZM397.788 74.072V82.84H385.884V119H374.94V82.84H363.036V74.072H397.788ZM414.225 74.072V119H403.281V74.072H414.225ZM443.404 119.448C439.18 119.448 435.297 118.467 431.756 116.504C428.257 114.541 425.462 111.811 423.372 108.312C421.323 104.771 420.299 100.803 420.299 96.408C420.299 92.0133 421.323 88.0667 423.372 84.568C425.462 81.0693 428.257 78.3387 431.756 76.376C435.297 74.4133 439.18 73.432 443.404 73.432C447.628 73.432 451.489 74.4133 454.988 76.376C458.529 78.3387 461.302 81.0693 463.308 84.568C465.356 88.0667 466.38 92.0133 466.38 96.408C466.38 100.803 465.356 104.771 463.308 108.312C461.26 111.811 458.486 114.541 454.988 116.504C451.489 118.467 447.628 119.448 443.404 119.448ZM443.404 109.464C446.988 109.464 449.846 108.269 451.979 105.88C454.156 103.491 455.244 100.333 455.244 96.408C455.244 92.44 454.156 89.2827 451.979 86.936C449.846 84.5467 446.988 83.352 443.404 83.352C439.777 83.352 436.876 84.5253 434.7 86.872C432.566 89.2187 431.5 92.3973 431.5 96.408C431.5 100.376 432.566 103.555 434.7 105.944C436.876 108.291 439.777 109.464 443.404 109.464ZM512.66 119H501.716L483.412 91.288V119H472.468V74.072H483.412L501.716 101.912V74.072H512.66V119ZM536.849 119.448C533.564 119.448 530.62 118.915 528.017 117.848C525.414 116.781 523.324 115.203 521.745 113.112C520.209 111.021 519.398 108.504 519.313 105.56H530.961C531.132 107.224 531.708 108.504 532.689 109.4C533.67 110.253 534.95 110.68 536.529 110.68C538.15 110.68 539.43 110.317 540.369 109.592C541.308 108.824 541.777 107.779 541.777 106.456C541.777 105.347 541.393 104.429 540.625 103.704C539.9 102.979 538.982 102.381 537.873 101.912C536.806 101.443 535.27 100.909 533.265 100.312C530.364 99.416 527.996 98.52 526.161 97.624C524.326 96.728 522.748 95.4053 521.425 93.656C520.102 91.9067 519.441 89.624 519.441 86.808C519.441 82.6267 520.956 79.3627 523.985 77.016C527.014 74.6267 530.961 73.432 535.825 73.432C540.774 73.432 544.764 74.6267 547.793 77.016C550.822 79.3627 552.444 82.648 552.657 86.872H540.817C540.732 85.4213 540.198 84.2907 539.217 83.48C538.236 82.6267 536.977 82.2 535.441 82.2C534.118 82.2 533.052 82.5627 532.241 83.288C531.43 83.9707 531.025 84.9733 531.025 86.296C531.025 87.7467 531.708 88.8773 533.073 89.688C534.438 90.4987 536.572 91.3733 539.473 92.312C542.374 93.2933 544.721 94.232 546.513 95.128C548.348 96.024 549.926 97.3253 551.249 99.032C552.572 100.739 553.233 102.936 553.233 105.624C553.233 108.184 552.572 110.509 551.249 112.6C549.969 114.691 548.092 116.355 545.617 117.592C543.142 118.829 540.22 119.448 536.849 119.448Z" fill="white"/>
<path d="M1185.71 99.534C1185.5 98.6814 1185.06 97.9002 1184.45 97.2693C1183.84 96.6384 1183.07 96.1801 1182.23 95.9409C1179.13 95.1863 1166.77 95.1863 1166.77 95.1863C1166.77 95.1863 1154.41 95.1863 1151.32 96.0127C1150.48 96.252 1149.71 96.7102 1149.1 97.3411C1148.49 97.972 1148.05 98.7532 1147.84 99.6059C1147.27 102.742 1147 105.923 1147.01 109.11C1146.99 112.32 1147.27 115.526 1147.84 118.685C1148.07 119.512 1148.52 120.263 1149.13 120.867C1149.74 121.472 1150.5 121.908 1151.32 122.135C1154.41 122.961 1166.77 122.961 1166.77 122.961C1166.77 122.961 1179.13 122.961 1182.23 122.135C1183.07 121.896 1183.84 121.437 1184.45 120.806C1185.06 120.176 1185.5 119.394 1185.71 118.542C1186.27 115.429 1186.55 112.272 1186.54 109.11C1186.56 105.899 1186.28 102.694 1185.71 99.534Z" stroke="white" stroke-width="2" stroke-linecap="round" stroke-linejoin="round"/>
<path d="M1162.73 114.984L1173.06 109.11L1162.73 103.235V114.984Z" stroke="white" stroke-width="2" stroke-linecap="round" stroke-linejoin="round"/>
<path d="M1076.95 91.5931H1071.56C1069.17 91.5931 1066.89 92.5395 1065.2 94.2241C1063.52 95.9087 1062.57 98.1935 1062.57 100.576V105.966H1057.18V113.152H1062.57V127.524H1069.76V113.152H1075.15L1076.95 105.966H1069.76V100.576C1069.76 100.099 1069.95 99.6425 1070.29 99.3056C1070.62 98.9686 1071.08 98.7794 1071.56 98.7794H1076.95V91.5931Z" stroke="white" stroke-width="2" stroke-linecap="round" stroke-linejoin="round"/>
<path d="M974.542 91.5931H956.576C951.615 91.5931 947.593 95.6148 947.593 100.576V118.542C947.593 123.503 951.615 127.524 956.576 127.524H974.542C979.503 127.524 983.525 123.503 983.525 118.542V100.576C983.525 95.6148 979.503 91.5931 974.542 91.5931Z" stroke="white" stroke-width="2" stroke-linecap="round" stroke-linejoin="round"/>
<path d="M972.745 108.427C972.967 109.922 972.711 111.449 972.015 112.791C971.319 114.133 970.218 115.221 968.867 115.9C967.517 116.58 965.987 116.816 964.495 116.576C963.003 116.336 961.624 115.631 960.555 114.563C959.486 113.494 958.782 112.115 958.542 110.623C958.301 109.131 958.538 107.6 959.218 106.25C959.897 104.9 960.985 103.799 962.327 103.102C963.668 102.406 965.195 102.151 966.691 102.373C968.216 102.599 969.628 103.309 970.718 104.4C971.808 105.49 972.519 106.902 972.745 108.427Z" stroke="white" stroke-width="2" stroke-linecap="round" stroke-linejoin="round"/>
<path d="M975.44 99.6777H975.457" stroke="white" stroke-width="2" stroke-linecap="round" stroke-linejoin="round"/>
<rect x="681" y="48" width="5" height="110" fill="white" fill-opacity="0.2"/>
<defs>
<linearGradient id="paint0_linear_9704_266" x1="1003" y1="-581" x2="-252.26" y2="376.612" gradientUnits="userSpaceOnUse">
<stop offset="0.211291" stop-color="#44006C"/>
<stop offset="0.755072" stop-color="#980096"/>
</linearGradient>
</defs>
</svg>
