<svg width="445" height="53" viewBox="0 0 445 53" fill="none" xmlns="http://www.w3.org/2000/svg">
<path d="M64.792 7.072L53.08 52H39.832L32.664 22.432L25.24 52H11.992L0.6 7.072H12.312L18.776 39.776L26.776 7.072H38.808L46.488 39.776L53.016 7.072H64.792ZM75.7845 12.576C73.8645 12.576 72.2858 12.0213 71.0485 10.912C69.8538 9.76 69.2565 8.352 69.2565 6.688C69.2565 4.98133 69.8538 3.57333 71.0485 2.464C72.2858 1.312 73.8645 0.735996 75.7845 0.735996C77.6618 0.735996 79.1978 1.312 80.3925 2.464C81.6298 3.57333 82.2485 4.98133 82.2485 6.688C82.2485 8.352 81.6298 9.76 80.3925 10.912C79.1978 12.0213 77.6618 12.576 75.7845 12.576ZM81.2245 16.288V52H70.2805V16.288H81.2245ZM110.98 52L100.1 37.024V52H89.1555V4.64H100.1V30.816L110.916 16.288H124.42L109.572 34.208L124.548 52H110.98ZM134.222 12.576C132.302 12.576 130.723 12.0213 129.486 10.912C128.291 9.76 127.694 8.352 127.694 6.688C127.694 4.98133 128.291 3.57333 129.486 2.464C130.723 1.312 132.302 0.735996 134.222 0.735996C136.099 0.735996 137.635 1.312 138.83 2.464C140.067 3.57333 140.686 4.98133 140.686 6.688C140.686 8.352 140.067 9.76 138.83 10.912C137.635 12.0213 136.099 12.576 134.222 12.576ZM139.662 16.288V52H128.718V16.288H139.662Z" fill="#F178B6"/>
<path d="M201.348 52H190.404L172.1 24.288V52H161.156V7.072H172.1L190.404 34.912V7.072H201.348V52ZM237.249 44.064H220.481L217.793 52H206.337L222.593 7.072H235.265L251.521 52H239.937L237.249 44.064ZM234.433 35.616L228.865 19.168L223.361 35.616H234.433ZM288.788 7.072V15.84H276.884V52H265.94V15.84H254.036V7.072H288.788ZM305.225 7.072V52H294.281V7.072H305.225ZM334.404 52.448C330.18 52.448 326.297 51.4667 322.756 49.504C319.257 47.5413 316.462 44.8107 314.372 41.312C312.323 37.7707 311.299 33.8027 311.299 29.408C311.299 25.0133 312.323 21.0667 314.372 17.568C316.462 14.0693 319.257 11.3387 322.756 9.376C326.297 7.41333 330.18 6.432 334.404 6.432C338.628 6.432 342.489 7.41333 345.988 9.376C349.529 11.3387 352.302 14.0693 354.308 17.568C356.356 21.0667 357.38 25.0133 357.38 29.408C357.38 33.8027 356.356 37.7707 354.308 41.312C352.26 44.8107 349.486 47.5413 345.988 49.504C342.489 51.4667 338.628 52.448 334.404 52.448ZM334.404 42.464C337.988 42.464 340.846 41.2693 342.979 38.88C345.156 36.4907 346.244 33.3333 346.244 29.408C346.244 25.44 345.156 22.2827 342.979 19.936C340.846 17.5467 337.988 16.352 334.404 16.352C330.777 16.352 327.876 17.5253 325.7 19.872C323.566 22.2187 322.5 25.3973 322.5 29.408C322.5 33.376 323.566 36.5547 325.7 38.944C327.876 41.2907 330.777 42.464 334.404 42.464ZM403.66 52H392.716L374.412 24.288V52H363.468V7.072H374.412L392.716 34.912V7.072H403.66V52ZM427.849 52.448C424.564 52.448 421.62 51.9147 419.017 50.848C416.414 49.7813 414.324 48.2027 412.745 46.112C411.209 44.0213 410.398 41.504 410.313 38.56H421.961C422.132 40.224 422.708 41.504 423.689 42.4C424.67 43.2533 425.95 43.68 427.529 43.68C429.15 43.68 430.43 43.3173 431.369 42.592C432.308 41.824 432.777 40.7787 432.777 39.456C432.777 38.3467 432.393 37.4293 431.625 36.704C430.9 35.9787 429.982 35.3813 428.873 34.912C427.806 34.4427 426.27 33.9093 424.265 33.312C421.364 32.416 418.996 31.52 417.161 30.624C415.326 29.728 413.748 28.4053 412.425 26.656C411.102 24.9067 410.441 22.624 410.441 19.808C410.441 15.6267 411.956 12.3627 414.985 10.016C418.014 7.62667 421.961 6.432 426.825 6.432C431.774 6.432 435.764 7.62667 438.793 10.016C441.822 12.3627 443.444 15.648 443.657 19.872H431.817C431.732 18.4213 431.198 17.2907 430.217 16.48C429.236 15.6267 427.977 15.2 426.441 15.2C425.118 15.2 424.052 15.5627 423.241 16.288C422.43 16.9707 422.025 17.9733 422.025 19.296C422.025 20.7467 422.708 21.8773 424.073 22.688C425.438 23.4987 427.572 24.3733 430.473 25.312C433.374 26.2933 435.721 27.232 437.513 28.128C439.348 29.024 440.926 30.3253 442.249 32.032C443.572 33.7387 444.233 35.936 444.233 38.624C444.233 41.184 443.572 43.5093 442.249 45.6C440.969 47.6907 439.092 49.3547 436.617 50.592C434.142 51.8293 431.22 52.448 427.849 52.448Z" fill="white"/>
</svg>
