<svg width="223" height="27" viewBox="0 0 223 27" fill="none" xmlns="http://www.w3.org/2000/svg">
<path d="M32.896 3.536L27.04 26H20.416L16.832 11.216L13.12 26H6.496L0.8 3.536H6.656L9.888 19.888L13.888 3.536H19.904L23.744 19.888L27.008 3.536H32.896ZM38.3923 6.288C37.4323 6.288 36.6429 6.01067 36.0243 5.456C35.4269 4.88 35.1283 4.176 35.1283 3.344C35.1283 2.49067 35.4269 1.78667 36.0243 1.232C36.6429 0.655998 37.4323 0.367998 38.3923 0.367998C39.3309 0.367998 40.0989 0.655998 40.6963 1.232C41.3149 1.78667 41.6243 2.49067 41.6243 3.344C41.6243 4.176 41.3149 4.88 40.6963 5.456C40.0989 6.01067 39.3309 6.288 38.3923 6.288ZM41.1123 8.144V26H35.6403V8.144H41.1123ZM55.9898 26L50.5498 18.512V26H45.0778V2.32H50.5498V15.408L55.9578 8.144H62.7098L55.2858 17.104L62.7738 26H55.9898ZM67.611 6.288C66.651 6.288 65.8617 6.01067 65.243 5.456C64.6457 4.88 64.347 4.176 64.347 3.344C64.347 2.49067 64.6457 1.78667 65.243 1.232C65.8617 0.655998 66.651 0.367998 67.611 0.367998C68.5497 0.367998 69.3177 0.655998 69.915 1.232C70.5337 1.78667 70.843 2.49067 70.843 3.344C70.843 4.176 70.5337 4.88 69.915 5.456C69.3177 6.01067 68.5497 6.288 67.611 6.288ZM70.331 8.144V26H64.859V8.144H70.331Z" fill="#F178B6"/>
<path d="M101.174 26H95.7018L86.5498 12.144V26H81.0778V3.536H86.5498L95.7018 17.456V3.536H101.174V26ZM119.124 22.032H110.74L109.396 26H103.668L111.796 3.536H118.132L126.26 26H120.468L119.124 22.032ZM117.716 17.808L114.932 9.584L112.18 17.808H117.716ZM144.894 3.536V7.92H138.942V26H133.47V7.92H127.518V3.536H144.894ZM153.112 3.536V26H147.64V3.536H153.112ZM167.702 26.224C165.59 26.224 163.648 25.7333 161.878 24.752C160.128 23.7707 158.731 22.4053 157.686 20.656C156.662 18.8853 156.15 16.9013 156.15 14.704C156.15 12.5067 156.662 10.5333 157.686 8.784C158.731 7.03467 160.128 5.66933 161.878 4.688C163.648 3.70667 165.59 3.216 167.702 3.216C169.814 3.216 171.744 3.70667 173.494 4.688C175.264 5.66933 176.651 7.03467 177.654 8.784C178.678 10.5333 179.19 12.5067 179.19 14.704C179.19 16.9013 178.678 18.8853 177.654 20.656C176.63 22.4053 175.243 23.7707 173.494 24.752C171.744 25.7333 169.814 26.224 167.702 26.224ZM167.702 21.232C169.494 21.232 170.923 20.6347 171.99 19.44C173.078 18.2453 173.622 16.6667 173.622 14.704C173.622 12.72 173.078 11.1413 171.99 9.968C170.923 8.77333 169.494 8.176 167.702 8.176C165.888 8.176 164.438 8.76267 163.35 9.936C162.283 11.1093 161.75 12.6987 161.75 14.704C161.75 16.688 162.283 18.2773 163.35 19.472C164.438 20.6453 165.888 21.232 167.702 21.232ZM202.33 26H196.858L187.706 12.144V26H182.234V3.536H187.706L196.858 17.456V3.536H202.33V26ZM214.425 26.224C212.782 26.224 211.31 25.9573 210.009 25.424C208.707 24.8907 207.662 24.1013 206.873 23.056C206.105 22.0107 205.699 20.752 205.657 19.28H211.481C211.566 20.112 211.854 20.752 212.345 21.2C212.835 21.6267 213.475 21.84 214.265 21.84C215.075 21.84 215.715 21.6587 216.185 21.296C216.654 20.912 216.889 20.3893 216.889 19.728C216.889 19.1733 216.697 18.7147 216.313 18.352C215.95 17.9893 215.491 17.6907 214.937 17.456C214.403 17.2213 213.635 16.9547 212.633 16.656C211.182 16.208 209.998 15.76 209.081 15.312C208.163 14.864 207.374 14.2027 206.713 13.328C206.051 12.4533 205.721 11.312 205.721 9.904C205.721 7.81333 206.478 6.18133 207.993 5.008C209.507 3.81333 211.481 3.216 213.913 3.216C216.387 3.216 218.382 3.81333 219.897 5.008C221.411 6.18133 222.222 7.824 222.329 9.936H216.409C216.366 9.21067 216.099 8.64533 215.609 8.24C215.118 7.81333 214.489 7.6 213.72 7.6C213.059 7.6 212.526 7.78133 212.121 8.144C211.715 8.48533 211.513 8.98667 211.513 9.648C211.513 10.3733 211.854 10.9387 212.536 11.344C213.219 11.7493 214.286 12.1867 215.737 12.656C217.187 13.1467 218.361 13.616 219.257 14.064C220.174 14.512 220.963 15.1627 221.625 16.016C222.286 16.8693 222.617 17.968 222.617 19.312C222.617 20.592 222.286 21.7547 221.625 22.8C220.985 23.8453 220.046 24.6773 218.809 25.296C217.571 25.9147 216.11 26.224 214.425 26.224Z" fill="#5E2993"/>
</svg>
